<svg viewBox="-5 0 21.939 21.875" version="1.1" xmlns="http://www.w3.org/2000/svg">
    <defs></defs>
    <path
        d="M 11.469 4.094 C 10.406 3.5 10.063 2.156 10.656 1.094 C 11.062 0.375 11.812 0 12.562 0 C 12.937 0 13.312 0.094 13.656 0.281 C 14.719 0.906 15.062 2.25 14.469 3.281 C 14.063 4 13.313 4.375 12.563 4.375 C 12.188 4.375 11.813 4.281 11.469 4.094 L 11.469 4.094 Z M 16.938 10.313 L 13.313 10.313 C 13.188 8.625 12.344 7.125 11.063 6.157 C 10.844 6.001 10.625 5.844 10.375 5.688 C 9.562 5.25 8.625 5 7.625 5 C 6.594 5 5.656 5.25 4.812 5.719 L 2.812 2.688 C 4.218 1.844 5.843 1.375 7.625 1.375 C 8.313 1.375 9 1.438 9.688 1.594 C 9.438 2.813 9.969 4.094 11.094 4.75 C 11.532 5 12.032 5.125 12.563 5.125 C 13.282 5.125 13.969 4.875 14.501 4.406 C 15.939 5.969 16.845 8.031 16.939 10.312 L 16.938 10.313 Z M 2.125 3.157 L 4.125 6.188 C 2.875 7.157 2.031 8.626 1.937 10.313 C 1.906 10.438 1.906 10.563 1.906 10.719 C 1.906 10.844 1.906 11 1.937 11.125 C 2.062 12.906 3 14.438 4.375 15.406 L 2.469 18.5 C 0.656 17.312 -0.719 15.5 -1.344 13.375 C -0.469 12.875 0.156 11.906 0.156 10.812 C 0.156 9.718 -0.469 8.718 -1.407 8.218 C -0.813 6.155 0.437 4.374 2.124 3.155 L 2.125 3.157 Z M -2.812 8.625 C -1.593 8.625 -0.593 9.594 -0.593 10.813 C -0.593 12.032 -1.593 13.032 -2.812 13.032 C -4.031 13.032 -5 12.032 -5 10.813 C -5 9.594 -4.031 8.625 -2.812 8.625 Z M 3.188 18.938 L 5.094 15.813 C 5.844 16.188 6.719 16.407 7.625 16.407 C 8.625 16.407 9.563 16.157 10.406 15.688 C 10.656 15.563 10.875 15.407 11.094 15.219 C 12.344 14.281 13.188 12.813 13.313 11.125 L 16.938 11.125 C 16.844 13.5 15.844 15.656 14.282 17.25 C 13.813 16.906 13.219 16.719 12.626 16.719 C 12.095 16.719 11.595 16.844 11.157 17.094 C 10.157 17.688 9.626 18.75 9.688 19.813 C 9 19.969 8.313 20.063 7.625 20.063 C 6 20.063 4.5 19.657 3.187 18.938 L 3.188 18.938 Z M 12.625 17.469 C 13.375 17.469 14.125 17.844 14.531 18.563 C 15.125 19.626 14.75 21.001 13.718 21.594 C 13.374 21.782 12.999 21.875 12.624 21.875 C 11.843 21.875 11.124 21.5 10.718 20.781 C 10.093 19.718 10.468 18.375 11.531 17.75 C 11.875 17.562 12.25 17.469 12.625 17.469 Z"></path>
</svg>